STARTFONT 2.1
FONT -Monotype-Bookman Old Style-Regular-R-Normal--12-120-75-75-P-62-iso8859-9
SIZE 12 75 75
FONTBOUNDINGBOX 18 15 -2 -3

STARTPROPERTIES 24
FOUNDRY "Monotype"
FAMILY_NAME "Bookman Old Style"
WEIGHT_NAME "Regular"
SLANT "R"
SETWIDTH_NAME "Normal"
ADD_STYLE_NAME ""
PIXEL_SIZE 12
POINT_SIZE 120
RESOLUTION_X 75
RESOLUTION_Y 75
SPACING "P"
AVERAGE_WIDTH 62
CHARSET_REGISTRY "iso8859"
CHARSET_ENCODING "9"
FACE_NAME "Bookman Old Style ISO Latin5"
_DEC_DEVICE_FONTNAMES "PS=bookmanoldstyle-lat5"
COPYRIGHT "Copyright (c) 1994 Monotype Typography Ltd."
CAP_HEIGHT 10
X_HEIGHT 7
WEIGHT 10
QUAD_WIDTH 9
DEFAULT_CHAR 160
FONT_DESCENT 3
FONT_ASCENT 12
ENDPROPERTIES

CHARS 191

STARTCHAR space
ENCODING 32
SWIDTH 320 0
DWIDTH 4 0
BBX 0 0 0 0
BITMAP
ENDCHAR

STARTCHAR exclam
ENCODING 33
SWIDTH 300 0
DWIDTH 4 0
BBX 2 9 1 0
BITMAP
C0
C0
C0
40
40
40
00
40
40
ENDCHAR

STARTCHAR quotedbl
ENCODING 34
SWIDTH 380 0
DWIDTH 5 0
BBX 3 4 1 5
BITMAP
A0
A0
A0
A0
ENDCHAR

STARTCHAR numbersign
ENCODING 35
SWIDTH 600 0
DWIDTH 8 0
BBX 6 9 1 0
BITMAP
28
28
28
FC
50
FC
50
50
50
ENDCHAR

STARTCHAR dollar
ENCODING 36
SWIDTH 620 0
DWIDTH 8 0
BBX 7 11 1 -1
BITMAP
10
7A
96
92
70
1C
12
92
D2
BC
10
ENDCHAR

STARTCHAR percent
ENCODING 37
SWIDTH 900 0
DWIDTH 12 0
BBX 11 9 1 0
BITMAP
6080
9100
9100
9200
64C0
0520
0920
1120
10C0
ENDCHAR

STARTCHAR ampersand
ENCODING 38
SWIDTH 800 0
DWIDTH 10 0
BBX 9 9 1 0
BITMAP
3000
4800
4800
3700
4A00
8A00
8580
CC80
7300
ENDCHAR

STARTCHAR quoteright
ENCODING 39
SWIDTH 220 0
DWIDTH 3 0
BBX 2 4 1 5
BITMAP
40
40
40
80
ENDCHAR

STARTCHAR parenleft
ENCODING 40
SWIDTH 300 0
DWIDTH 4 0
BBX 2 12 1 -3
BITMAP
40
80
80
80
80
80
80
80
80
80
80
40
ENDCHAR

STARTCHAR parenright
ENCODING 41
SWIDTH 300 0
DWIDTH 4 0
BBX 2 12 1 -3
BITMAP
80
40
40
40
40
40
40
40
40
40
40
80
ENDCHAR

STARTCHAR asterisk
ENCODING 42
SWIDTH 440 0
DWIDTH 6 0
BBX 5 4 1 5
BITMAP
20
F8
20
50
ENDCHAR

STARTCHAR plus
ENCODING 43
SWIDTH 600 0
DWIDTH 8 0
BBX 7 7 1 1
BITMAP
10
10
10
FE
10
10
10
ENDCHAR

STARTCHAR comma
ENCODING 44
SWIDTH 320 0
DWIDTH 4 0
BBX 2 4 1 -2
BITMAP
40
40
40
80
ENDCHAR

STARTCHAR minus
ENCODING 45
SWIDTH 600 0
DWIDTH 8 0
BBX 6 1 1 4
BITMAP
FC
ENDCHAR

STARTCHAR period
ENCODING 46
SWIDTH 320 0
DWIDTH 4 0
BBX 1 2 2 0
BITMAP
80
80
ENDCHAR

STARTCHAR slash
ENCODING 47
SWIDTH 600 0
DWIDTH 8 0
BBX 5 12 2 -3
BITMAP
08
08
10
10
10
20
20
40
40
40
80
80
ENDCHAR

STARTCHAR zero
ENCODING 48
SWIDTH 620 0
DWIDTH 8 0
BBX 6 9 1 0
BITMAP
78
84
84
84
84
84
84
84
78
ENDCHAR

STARTCHAR one
ENCODING 49
SWIDTH 620 0
DWIDTH 8 0
BBX 5 9 2 0
BITMAP
20
E0
20
20
20
20
20
20
F8
ENDCHAR

STARTCHAR two
ENCODING 50
SWIDTH 620 0
DWIDTH 8 0
BBX 6 9 1 0
BITMAP
78
84
84
04
08
10
20
44
FC
ENDCHAR

STARTCHAR three
ENCODING 51
SWIDTH 620 0
DWIDTH 8 0
BBX 6 9 1 0
BITMAP
78
84
84
04
38
04
84
84
78
ENDCHAR

STARTCHAR four
ENCODING 52
SWIDTH 620 0
DWIDTH 8 0
BBX 7 9 1 0
BITMAP
08
18
28
48
88
FE
08
08
08
ENDCHAR

STARTCHAR five
ENCODING 53
SWIDTH 620 0
DWIDTH 8 0
BBX 6 9 1 0
BITMAP
F8
80
80
F8
04
04
84
84
78
ENDCHAR

STARTCHAR six
ENCODING 54
SWIDTH 620 0
DWIDTH 8 0
BBX 6 9 1 0
BITMAP
38
40
80
B8
C4
84
84
84
78
ENDCHAR

STARTCHAR seven
ENCODING 55
SWIDTH 620 0
DWIDTH 8 0
BBX 6 9 1 0
BITMAP
FC
84
08
10
10
10
20
20
20
ENDCHAR

STARTCHAR eight
ENCODING 56
SWIDTH 620 0
DWIDTH 8 0
BBX 6 9 1 0
BITMAP
78
84
84
84
78
84
84
84
78
ENDCHAR

STARTCHAR nine
ENCODING 57
SWIDTH 620 0
DWIDTH 8 0
BBX 6 9 1 0
BITMAP
78
84
84
84
8C
74
04
08
70
ENDCHAR

STARTCHAR colon
ENCODING 58
SWIDTH 320 0
DWIDTH 4 0
BBX 1 6 2 0
BITMAP
80
80
00
00
80
80
ENDCHAR

STARTCHAR semicolon
ENCODING 59
SWIDTH 320 0
DWIDTH 4 0
BBX 2 8 1 -2
BITMAP
40
40
00
00
40
40
40
80
ENDCHAR

STARTCHAR less
ENCODING 60
SWIDTH 600 0
DWIDTH 8 0
BBX 6 6 1 1
BITMAP
04
18
E0
60
18
04
ENDCHAR

STARTCHAR equal
ENCODING 61
SWIDTH 600 0
DWIDTH 8 0
BBX 6 3 1 3
BITMAP
FC
00
FC
ENDCHAR

STARTCHAR greater
ENCODING 62
SWIDTH 600 0
DWIDTH 8 0
BBX 6 6 1 1
BITMAP
80
60
18
1C
60
80
ENDCHAR

STARTCHAR question
ENCODING 63
SWIDTH 540 0
DWIDTH 7 0
BBX 6 9 1 0
BITMAP
78
84
04
04
78
40
00
40
40
ENDCHAR

STARTCHAR at
ENCODING 64
SWIDTH 820 0
DWIDTH 11 0
BBX 11 12 0 -3
BITMAP
0F80
1040
2020
4720
4920
8920
9220
96C0
5B20
4040
31C0
0E00
ENDCHAR

STARTCHAR A
ENCODING 65
SWIDTH 680 0
DWIDTH 9 0
BBX 9 9 0 0
BITMAP
0800
0800
1400
1400
2200
3E00
4100
4100
E380
ENDCHAR

STARTCHAR B
ENCODING 66
SWIDTH 740 0
DWIDTH 10 0
BBX 8 9 1 0
BITMAP
FE
41
41
41
7E
41
41
41
FE
ENDCHAR

STARTCHAR C
ENCODING 67
SWIDTH 740 0
DWIDTH 10 0
BBX 8 9 1 0
BITMAP
3D
43
81
80
80
80
81
42
3C
ENDCHAR

STARTCHAR D
ENCODING 68
SWIDTH 800 0
DWIDTH 10 0
BBX 9 9 1 0
BITMAP
FE00
4100
4080
4080
4080
4080
4080
4100
FE00
ENDCHAR

STARTCHAR E
ENCODING 69
SWIDTH 720 0
DWIDTH 9 0
BBX 8 9 1 0
BITMAP
FE
41
41
48
78
48
41
41
FE
ENDCHAR

STARTCHAR F
ENCODING 70
SWIDTH 640 0
DWIDTH 8 0
BBX 7 9 1 0
BITMAP
FC
42
42
48
78
48
40
40
E0
ENDCHAR

STARTCHAR G
ENCODING 71
SWIDTH 800 0
DWIDTH 10 0
BBX 9 9 1 0
BITMAP
3D00
4300
8100
8000
8380
8100
8100
4300
3D00
ENDCHAR

STARTCHAR H
ENCODING 72
SWIDTH 800 0
DWIDTH 10 0
BBX 9 9 1 0
BITMAP
E380
4100
4100
4100
7F00
4100
4100
4100
E380
ENDCHAR

STARTCHAR I
ENCODING 73
SWIDTH 340 0
DWIDTH 4 0
BBX 3 9 1 0
BITMAP
E0
40
40
40
40
40
40
40
E0
ENDCHAR

STARTCHAR J
ENCODING 74
SWIDTH 600 0
DWIDTH 8 0
BBX 7 9 1 0
BITMAP
0E
04
04
04
04
04
84
84
78
ENDCHAR

STARTCHAR K
ENCODING 75
SWIDTH 720 0
DWIDTH 9 0
BBX 8 9 1 0
BITMAP
E7
44
48
50
70
48
44
42
E7
ENDCHAR

STARTCHAR L
ENCODING 76
SWIDTH 600 0
DWIDTH 8 0
BBX 7 9 1 0
BITMAP
E0
40
40
40
40
40
42
46
FC
ENDCHAR

STARTCHAR M
ENCODING 77
SWIDTH 920 0
DWIDTH 12 0
BBX 11 9 1 0
BITMAP
E0E0
60C0
5140
5140
5340
4A40
4A40
4440
E4E0
ENDCHAR

STARTCHAR N
ENCODING 78
SWIDTH 740 0
DWIDTH 10 0
BBX 9 9 1 0
BITMAP
E380
7100
5100
4900
4D00
4500
4300
4300
E100
ENDCHAR

STARTCHAR O
ENCODING 79
SWIDTH 800 0
DWIDTH 10 0
BBX 9 9 1 0
BITMAP
3E00
4100
8080
8080
8080
8080
8080
4100
3E00
ENDCHAR

STARTCHAR P
ENCODING 80
SWIDTH 620 0
DWIDTH 8 0
BBX 7 9 1 0
BITMAP
FC
42
42
42
7C
40
40
40
E0
ENDCHAR

STARTCHAR Q
ENCODING 81
SWIDTH 820 0
DWIDTH 10 0
BBX 9 12 1 -3
BITMAP
3E00
4100
8080
8080
8080
8080
8080
4100
3E00
0800
0800
0700
ENDCHAR

STARTCHAR R
ENCODING 82
SWIDTH 720 0
DWIDTH 9 0
BBX 8 9 1 0
BITMAP
FE
41
41
41
7E
48
44
42
E3
ENDCHAR

STARTCHAR S
ENCODING 83
SWIDTH 660 0
DWIDTH 8 0
BBX 7 9 1 0
BITMAP
7A
86
82
60
18
04
82
C2
BC
ENDCHAR

STARTCHAR T
ENCODING 84
SWIDTH 620 0
DWIDTH 9 0
BBX 9 9 0 0
BITMAP
7F00
8880
8880
0800
0800
0800
0800
0800
1C00
ENDCHAR

STARTCHAR U
ENCODING 85
SWIDTH 780 0
DWIDTH 10 0
BBX 9 9 1 0
BITMAP
E380
4100
4100
4100
4100
4100
4100
2200
1C00
ENDCHAR

STARTCHAR V
ENCODING 86
SWIDTH 700 0
DWIDTH 9 0
BBX 9 9 0 0
BITMAP
E380
4100
4100
2200
2200
1400
1400
0800
0800
ENDCHAR

STARTCHAR W
ENCODING 87
SWIDTH 960 0
DWIDTH 12 0
BBX 11 9 1 0
BITMAP
EEE0
4440
4440
4440
2A80
2A80
2A80
1100
1100
ENDCHAR

STARTCHAR X
ENCODING 88
SWIDTH 720 0
DWIDTH 9 0
BBX 9 9 0 0
BITMAP
E380
4100
2200
1C00
0800
1C00
2200
4100
E380
ENDCHAR

STARTCHAR Y
ENCODING 89
SWIDTH 640 0
DWIDTH 8 0
BBX 7 9 1 0
BITMAP
EE
44
44
28
38
10
10
10
38
ENDCHAR

STARTCHAR Z
ENCODING 90
SWIDTH 640 0
DWIDTH 8 0
BBX 7 9 1 0
BITMAP
7E
82
84
08
10
20
42
82
FC
ENDCHAR

STARTCHAR bracketleft
ENCODING 91
SWIDTH 300 0
DWIDTH 4 0
BBX 2 12 1 -3
BITMAP
C0
80
80
80
80
80
80
80
80
80
80
C0
ENDCHAR

STARTCHAR backslash
ENCODING 92
SWIDTH 600 0
DWIDTH 8 0
BBX 5 12 2 -3
BITMAP
80
80
40
40
40
20
20
10
10
10
08
08
ENDCHAR

STARTCHAR bracketright
ENCODING 93
SWIDTH 300 0
DWIDTH 4 0
BBX 2 12 1 -3
BITMAP
C0
40
40
40
40
40
40
40
40
40
40
C0
ENDCHAR

STARTCHAR asciicircum
ENCODING 94
SWIDTH 600 0
DWIDTH 8 0
BBX 6 5 1 4
BITMAP
30
30
48
48
84
ENDCHAR

STARTCHAR underscore
ENCODING 95
SWIDTH 500 0
DWIDTH 7 0
BBX 7 1 0 -2
BITMAP
FE
ENDCHAR

STARTCHAR quoteleft
ENCODING 96
SWIDTH 220 0
DWIDTH 3 0
BBX 2 4 1 5
BITMAP
40
80
80
80
ENDCHAR

STARTCHAR a
ENCODING 97
SWIDTH 580 0
DWIDTH 7 0
BBX 6 6 1 0
BITMAP
70
88
78
88
88
74
ENDCHAR

STARTCHAR b
ENCODING 98
SWIDTH 620 0
DWIDTH 7 0
BBX 7 9 0 0
BITMAP
40
C0
40
5C
62
42
42
62
5C
ENDCHAR

STARTCHAR c
ENCODING 99
SWIDTH 520 0
DWIDTH 7 0
BBX 6 6 1 0
BITMAP
78
84
80
80
84
78
ENDCHAR

STARTCHAR d
ENCODING 100
SWIDTH 620 0
DWIDTH 8 0
BBX 7 9 1 0
BITMAP
04
0C
04
74
8C
84
84
8C
76
ENDCHAR

STARTCHAR e
ENCODING 101
SWIDTH 520 0
DWIDTH 7 0
BBX 6 6 1 0
BITMAP
78
84
FC
80
84
78
ENDCHAR

STARTCHAR f
ENCODING 102
SWIDTH 320 0
DWIDTH 5 0
BBX 5 9 1 0
BITMAP
38
48
40
E0
40
40
40
40
E0
ENDCHAR

STARTCHAR g
ENCODING 103
SWIDTH 540 0
DWIDTH 7 0
BBX 6 9 1 -3
BITMAP
74
88
88
70
80
78
84
84
78
ENDCHAR

STARTCHAR h
ENCODING 104
SWIDTH 660 0
DWIDTH 9 0
BBX 8 9 1 0
BITMAP
40
C0
40
5C
62
42
42
42
E7
ENDCHAR

STARTCHAR i
ENCODING 105
SWIDTH 300 0
DWIDTH 4 0
BBX 3 9 1 0
BITMAP
40
40
00
40
C0
40
40
40
E0
ENDCHAR

STARTCHAR j
ENCODING 106
SWIDTH 300 0
DWIDTH 4 0
BBX 4 12 -1 -3
BITMAP
10
10
00
10
30
10
10
10
10
10
90
60
ENDCHAR

STARTCHAR k
ENCODING 107
SWIDTH 620 0
DWIDTH 8 0
BBX 7 9 1 0
BITMAP
40
C0
40
4E
44
58
68
44
EE
ENDCHAR

STARTCHAR l
ENCODING 108
SWIDTH 300 0
DWIDTH 4 0
BBX 3 9 1 0
BITMAP
40
C0
40
40
40
40
40
40
E0
ENDCHAR

STARTCHAR m
ENCODING 109
SWIDTH 940 0
DWIDTH 12 0
BBX 11 6 1 0
BITMAP
5D80
E640
4440
4440
4440
EEE0
ENDCHAR

STARTCHAR n
ENCODING 110
SWIDTH 660 0
DWIDTH 9 0
BBX 8 6 1 0
BITMAP
5C
E2
42
42
42
E7
ENDCHAR

STARTCHAR o
ENCODING 111
SWIDTH 560 0
DWIDTH 7 0
BBX 6 6 1 0
BITMAP
78
84
84
84
84
78
ENDCHAR

STARTCHAR p
ENCODING 112
SWIDTH 620 0
DWIDTH 8 0
BBX 7 9 1 -3
BITMAP
5C
E2
42
42
62
5C
40
40
E0
ENDCHAR

STARTCHAR q
ENCODING 113
SWIDTH 580 0
DWIDTH 8 0
BBX 7 9 1 -3
BITMAP
74
8C
84
84
8C
74
04
04
0E
ENDCHAR

STARTCHAR r
ENCODING 114
SWIDTH 440 0
DWIDTH 5 0
BBX 5 6 1 0
BITMAP
58
E0
40
40
40
E0
ENDCHAR

STARTCHAR s
ENCODING 115
SWIDTH 520 0
DWIDTH 6 0
BBX 5 6 1 0
BITMAP
78
88
E0
18
88
F0
ENDCHAR

STARTCHAR t
ENCODING 116
SWIDTH 380 0
DWIDTH 5 0
BBX 4 8 1 0
BITMAP
40
40
F0
40
40
40
40
30
ENDCHAR

STARTCHAR u
ENCODING 117
SWIDTH 680 0
DWIDTH 9 0
BBX 8 6 1 0
BITMAP
C6
42
42
42
46
3B
ENDCHAR

STARTCHAR v
ENCODING 118
SWIDTH 520 0
DWIDTH 8 0
BBX 7 6 1 0
BITMAP
EE
44
44
28
28
10
ENDCHAR

STARTCHAR w
ENCODING 119
SWIDTH 780 0
DWIDTH 10 0
BBX 11 6 0 0
BITMAP
EEE0
4440
2480
2A80
1100
1100
ENDCHAR

STARTCHAR x
ENCODING 120
SWIDTH 560 0
DWIDTH 7 0
BBX 6 6 1 0
BITMAP
CC
48
30
30
48
CC
ENDCHAR

STARTCHAR y
ENCODING 121
SWIDTH 540 0
DWIDTH 7 0
BBX 7 9 0 -3
BITMAP
EE
44
44
28
28
10
10
A0
C0
ENDCHAR

STARTCHAR z
ENCODING 122
SWIDTH 480 0
DWIDTH 6 0
BBX 5 6 1 0
BITMAP
78
90
20
40
88
F0
ENDCHAR

STARTCHAR braceleft
ENCODING 123
SWIDTH 280 0
DWIDTH 4 0
BBX 3 12 1 -3
BITMAP
20
40
40
40
40
80
80
40
40
40
40
20
ENDCHAR

STARTCHAR bar
ENCODING 124
SWIDTH 600 0
DWIDTH 8 0
BBX 1 12 4 -3
BITMAP
80
80
80
80
80
80
80
80
80
80
80
80
ENDCHAR

STARTCHAR braceright
ENCODING 125
SWIDTH 280 0
DWIDTH 4 0
BBX 3 12 1 -3
BITMAP
80
40
40
40
40
20
20
40
40
40
40
80
ENDCHAR

STARTCHAR asciitilde
ENCODING 126
SWIDTH 600 0
DWIDTH 8 0
BBX 4 2 2 3
BITMAP
D0
B0
ENDCHAR

STARTCHAR space
ENCODING 160
SWIDTH 320 0
DWIDTH 5 0
BBX 0 0 0 0
BITMAP
ENDCHAR

STARTCHAR exclamdown
ENCODING 161
SWIDTH 300 0
DWIDTH 4 0
BBX 2 9 1 -3
BITMAP
80
80
00
80
80
80
C0
C0
C0
ENDCHAR

STARTCHAR cent
ENCODING 162
SWIDTH 620 0
DWIDTH 8 0
BBX 5 9 2 0
BITMAP
20
20
70
A8
A0
A8
70
20
20
ENDCHAR

STARTCHAR sterling
ENCODING 163
SWIDTH 620 0
DWIDTH 8 0
BBX 8 9 0 0
BITMAP
1C
32
21
20
FC
10
71
99
66
ENDCHAR

STARTCHAR currency
ENCODING 164
SWIDTH 600 0
DWIDTH 8 0
BBX 6 6 1 2
BITMAP
B4
48
84
84
48
B4
ENDCHAR

STARTCHAR yen
ENCODING 165
SWIDTH 620 0
DWIDTH 8 0
BBX 7 9 1 0
BITMAP
EE
44
44
28
FE
10
FE
10
38
ENDCHAR

STARTCHAR brokenbar
ENCODING 166
SWIDTH 600 0
DWIDTH 8 0
BBX 1 12 4 -3
BITMAP
80
80
80
80
80
00
00
80
80
80
80
80
ENDCHAR

STARTCHAR section
ENCODING 167
SWIDTH 520 0
DWIDTH 7 0
BBX 6 12 1 -3
BITMAP
78
84
84
60
98
84
84
78
04
84
84
78
ENDCHAR

STARTCHAR dieresis
ENCODING 168
SWIDTH 420 0
DWIDTH 5 0
BBX 3 2 1 7
BITMAP
A0
A0
ENDCHAR

STARTCHAR copyright
ENCODING 169
SWIDTH 740 0
DWIDTH 10 0
BBX 10 10 0 -1
BITMAP
1E00
2100
4E80
9240
A040
A040
9240
4C80
2100
1E00
ENDCHAR

STARTCHAR ordfeminine
ENCODING 170
SWIDTH 420 0
DWIDTH 5 0
BBX 5 4 0 5
BITMAP
E0
70
90
E8
ENDCHAR

STARTCHAR guillemotleft
ENCODING 171
SWIDTH 360 0
DWIDTH 5 0
BBX 4 4 1 1
BITMAP
50
A0
A0
50
ENDCHAR

STARTCHAR logicalnot
ENCODING 172
SWIDTH 600 0
DWIDTH 8 0
BBX 6 3 1 3
BITMAP
FC
04
04
ENDCHAR

STARTCHAR hyphen
ENCODING 173
SWIDTH 400 0
DWIDTH 5 0
BBX 4 1 1 3
BITMAP
F0
ENDCHAR

STARTCHAR registered
ENCODING 174
SWIDTH 740 0
DWIDTH 10 0
BBX 10 10 0 -1
BITMAP
1E00
2100
5C80
9240
9240
9C40
9440
5280
2100
1E00
ENDCHAR

STARTCHAR macron
ENCODING 175
SWIDTH 440 0
DWIDTH 6 0
BBX 4 1 1 7
BITMAP
F0
ENDCHAR

STARTCHAR degree
ENCODING 176
SWIDTH 400 0
DWIDTH 5 0
BBX 4 4 1 5
BITMAP
60
90
90
60
ENDCHAR

STARTCHAR plusminus
ENCODING 177
SWIDTH 600 0
DWIDTH 8 0
BBX 7 8 1 1
BITMAP
10
10
10
FE
10
10
10
FE
ENDCHAR

STARTCHAR twosuperior
ENCODING 178
SWIDTH 372 0
DWIDTH 5 0
BBX 4 5 1 4
BITMAP
60
90
10
60
F0
ENDCHAR

STARTCHAR threesuperior
ENCODING 179
SWIDTH 372 0
DWIDTH 5 0
BBX 4 5 1 4
BITMAP
60
90
20
90
60
ENDCHAR

STARTCHAR acute
ENCODING 180
SWIDTH 340 0
DWIDTH 4 0
BBX 2 2 1 7
BITMAP
40
80
ENDCHAR

STARTCHAR mu
ENCODING 181
SWIDTH 680 0
DWIDTH 9 0
BBX 7 9 1 -3
BITMAP
44
44
44
44
4C
F6
84
80
80
ENDCHAR

STARTCHAR paragraph
ENCODING 182
SWIDTH 600 0
DWIDTH 8 0
BBX 7 12 1 -3
BITMAP
7E
F4
F4
F4
74
14
14
14
14
14
14
14
ENDCHAR

STARTCHAR periodcentered
ENCODING 183
SWIDTH 320 0
DWIDTH 4 0
BBX 1 2 2 3
BITMAP
80
80
ENDCHAR

STARTCHAR cedilla
ENCODING 184
SWIDTH 320 0
DWIDTH 4 0
BBX 3 3 1 -3
BITMAP
40
20
C0
ENDCHAR

STARTCHAR onesuperior
ENCODING 185
SWIDTH 372 0
DWIDTH 5 0
BBX 3 5 1 4
BITMAP
40
C0
40
40
E0
ENDCHAR

STARTCHAR ordmasculine
ENCODING 186
SWIDTH 420 0
DWIDTH 5 0
BBX 4 5 1 4
BITMAP
60
90
90
90
60
ENDCHAR

STARTCHAR guillemotright
ENCODING 187
SWIDTH 360 0
DWIDTH 5 0
BBX 4 4 1 1
BITMAP
A0
50
50
A0
ENDCHAR

STARTCHAR onequarter
ENCODING 188
SWIDTH 930 0
DWIDTH 12 0
BBX 10 9 1 0
BITMAP
4100
C200
4200
4400
E880
0980
1280
23C0
2080
ENDCHAR

STARTCHAR onehalf
ENCODING 189
SWIDTH 930 0
DWIDTH 12 0
BBX 10 9 1 0
BITMAP
4100
C200
4200
4400
E980
0A40
1040
2180
23C0
ENDCHAR

STARTCHAR threequarters
ENCODING 190
SWIDTH 930 0
DWIDTH 12 0
BBX 11 9 1 0
BITMAP
6080
9100
2100
9200
6440
04C0
0940
11E0
1040
ENDCHAR

STARTCHAR questiondown
ENCODING 191
SWIDTH 540 0
DWIDTH 7 0
BBX 6 9 1 -3
BITMAP
08
08
00
08
78
80
80
84
78
ENDCHAR

STARTCHAR Agrave
ENCODING 192
SWIDTH 680 0
DWIDTH 9 0
BBX 9 12 0 0
BITMAP
1000
0800
0000
0800
0800
1400
1400
2200
3E00
4100
4100
E380
ENDCHAR

STARTCHAR Aacute
ENCODING 193
SWIDTH 680 0
DWIDTH 9 0
BBX 9 12 0 0
BITMAP
0400
0800
0000
0800
0800
1400
1400
2200
3E00
4100
4100
E380
ENDCHAR

STARTCHAR Acircumflex
ENCODING 194
SWIDTH 680 0
DWIDTH 9 0
BBX 9 12 0 0
BITMAP
0800
1400
0000
0800
0800
1400
1400
2200
3E00
4100
4100
E380
ENDCHAR

STARTCHAR Atilde
ENCODING 195
SWIDTH 680 0
DWIDTH 9 0
BBX 9 12 0 0
BITMAP
1A00
1600
0000
0800
0800
1400
1400
2200
3E00
4100
4100
E380
ENDCHAR

STARTCHAR Adieresis
ENCODING 196
SWIDTH 680 0
DWIDTH 9 0
BBX 9 12 0 0
BITMAP
1400
1400
0000
0800
0800
1400
1400
2200
3E00
4100
4100
E380
ENDCHAR

STARTCHAR Aring
ENCODING 197
SWIDTH 680 0
DWIDTH 9 0
BBX 9 12 0 0
BITMAP
0800
1400
0800
0800
0800
1400
1400
2200
3E00
4100
4100
E380
ENDCHAR

STARTCHAR AE
ENCODING 198
SWIDTH 1260 0
DWIDTH 16 0
BBX 15 9 1 0
BITMAP
0FFC
0482
0882
1088
1FF8
2088
2082
4082
E1FC
ENDCHAR

STARTCHAR Ccedilla
ENCODING 199
SWIDTH 740 0
DWIDTH 10 0
BBX 8 12 1 -3
BITMAP
3D
43
81
80
80
80
81
42
3C
10
08
30
ENDCHAR

STARTCHAR Egrave
ENCODING 200
SWIDTH 720 0
DWIDTH 9 0
BBX 8 12 1 0
BITMAP
10
08
00
FE
41
41
48
78
48
41
41
FE
ENDCHAR

STARTCHAR Eacute
ENCODING 201
SWIDTH 720 0
DWIDTH 9 0
BBX 8 12 1 0
BITMAP
08
10
00
FE
41
41
48
78
48
41
41
FE
ENDCHAR

STARTCHAR Ecircumflex
ENCODING 202
SWIDTH 720 0
DWIDTH 9 0
BBX 8 12 1 0
BITMAP
08
14
00
FE
41
41
48
78
48
41
41
FE
ENDCHAR

STARTCHAR Edieresis
ENCODING 203
SWIDTH 720 0
DWIDTH 9 0
BBX 8 12 1 0
BITMAP
14
14
00
FE
41
41
48
78
48
41
41
FE
ENDCHAR

STARTCHAR Igrave
ENCODING 204
SWIDTH 340 0
DWIDTH 4 0
BBX 3 12 1 0
BITMAP
80
40
00
E0
40
40
40
40
40
40
40
E0
ENDCHAR

STARTCHAR Iacute
ENCODING 205
SWIDTH 340 0
DWIDTH 4 0
BBX 3 12 1 0
BITMAP
20
40
00
E0
40
40
40
40
40
40
40
E0
ENDCHAR

STARTCHAR Icircumflex
ENCODING 206
SWIDTH 340 0
DWIDTH 4 0
BBX 3 12 1 0
BITMAP
40
A0
00
E0
40
40
40
40
40
40
40
E0
ENDCHAR

STARTCHAR Idieresis
ENCODING 207
SWIDTH 340 0
DWIDTH 4 0
BBX 3 12 1 0
BITMAP
A0
A0
00
E0
40
40
40
40
40
40
40
E0
ENDCHAR

STARTCHAR Gbreve
ENCODING 208
SWIDTH 800 0
DWIDTH 10 0
BBX 9 12 1 0
BITMAP
2400
1800
0000
3D00
4300
8100
8000
8380
8100
8100
4300
3D00
ENDCHAR

STARTCHAR Ntilde
ENCODING 209
SWIDTH 740 0
DWIDTH 10 0
BBX 9 12 1 0
BITMAP
1A00
1600
0000
E380
7100
5100
4900
4D00
4500
4300
4300
E100
ENDCHAR

STARTCHAR Ograve
ENCODING 210
SWIDTH 800 0
DWIDTH 10 0
BBX 9 12 1 0
BITMAP
1000
0800
0000
3E00
4100
8080
8080
8080
8080
8080
4100
3E00
ENDCHAR

STARTCHAR Oacute
ENCODING 211
SWIDTH 800 0
DWIDTH 10 0
BBX 9 12 1 0
BITMAP
0400
0800
0000
3E00
4100
8080
8080
8080
8080
8080
4100
3E00
ENDCHAR

STARTCHAR Ocircumflex
ENCODING 212
SWIDTH 800 0
DWIDTH 10 0
BBX 9 12 1 0
BITMAP
0800
1400
0000
3E00
4100
8080
8080
8080
8080
8080
4100
3E00
ENDCHAR

STARTCHAR Otilde
ENCODING 213
SWIDTH 800 0
DWIDTH 10 0
BBX 9 12 1 0
BITMAP
1A00
1600
0000
3E00
4100
8080
8080
8080
8080
8080
4100
3E00
ENDCHAR

STARTCHAR Odieresis
ENCODING 214
SWIDTH 800 0
DWIDTH 10 0
BBX 9 12 1 0
BITMAP
1400
1400
0000
3E00
4100
8080
8080
8080
8080
8080
4100
3E00
ENDCHAR

STARTCHAR multiply
ENCODING 215
SWIDTH 600 0
DWIDTH 8 0
BBX 5 5 2 2
BITMAP
88
50
20
50
88
ENDCHAR

STARTCHAR Oslash
ENCODING 216
SWIDTH 800 0
DWIDTH 10 0
BBX 9 9 1 0
BITMAP
3E80
4100
8280
8480
8880
9080
A080
4100
BE00
ENDCHAR

STARTCHAR Ugrave
ENCODING 217
SWIDTH 780 0
DWIDTH 10 0
BBX 9 12 1 0
BITMAP
1000
0800
0000
E380
4100
4100
4100
4100
4100
4100
2200
1C00
ENDCHAR

STARTCHAR Uacute
ENCODING 218
SWIDTH 780 0
DWIDTH 10 0
BBX 9 12 1 0
BITMAP
0400
0800
0000
E380
4100
4100
4100
4100
4100
4100
2200
1C00
ENDCHAR

STARTCHAR Ucircumflex
ENCODING 219
SWIDTH 780 0
DWIDTH 10 0
BBX 9 12 1 0
BITMAP
0800
1400
0000
E380
4100
4100
4100
4100
4100
4100
2200
1C00
ENDCHAR

STARTCHAR Udieresis
ENCODING 220
SWIDTH 780 0
DWIDTH 10 0
BBX 9 12 1 0
BITMAP
1400
1400
0000
E380
4100
4100
4100
4100
4100
4100
2200
1C00
ENDCHAR

STARTCHAR Idotaccent
ENCODING 221
SWIDTH 340 0
DWIDTH 4 0
BBX 3 12 1 0
BITMAP
40
40
00
E0
40
40
40
40
40
40
40
E0
ENDCHAR

STARTCHAR Scedilla
ENCODING 222
SWIDTH 660 0
DWIDTH 8 0
BBX 7 12 1 -3
BITMAP
7A
86
82
60
18
04
82
C2
BC
00
10
20
ENDCHAR

STARTCHAR germandbls
ENCODING 223
SWIDTH 660 0
DWIDTH 9 0
BBX 7 9 1 0
BITMAP
38
44
4C
D0
58
44
42
72
DC
ENDCHAR

STARTCHAR agrave
ENCODING 224
SWIDTH 580 0
DWIDTH 7 0
BBX 6 9 1 0
BITMAP
40
20
00
70
88
78
88
88
74
ENDCHAR

STARTCHAR aacute
ENCODING 225
SWIDTH 580 0
DWIDTH 7 0
BBX 6 9 1 0
BITMAP
10
20
00
70
88
78
88
88
74
ENDCHAR

STARTCHAR acircumflex
ENCODING 226
SWIDTH 580 0
DWIDTH 7 0
BBX 6 9 1 0
BITMAP
20
50
00
70
88
78
88
88
74
ENDCHAR

STARTCHAR atilde
ENCODING 227
SWIDTH 580 0
DWIDTH 7 0
BBX 6 9 1 0
BITMAP
68
58
00
70
88
78
88
88
74
ENDCHAR

STARTCHAR adieresis
ENCODING 228
SWIDTH 580 0
DWIDTH 7 0
BBX 6 9 1 0
BITMAP
50
50
00
70
88
78
88
88
74
ENDCHAR

STARTCHAR aring
ENCODING 229
SWIDTH 580 0
DWIDTH 7 0
BBX 6 10 1 0
BITMAP
20
50
20
00
70
88
78
88
88
74
ENDCHAR

STARTCHAR ae
ENCODING 230
SWIDTH 860 0
DWIDTH 11 0
BBX 10 6 1 0
BITMAP
7780
8840
7FC0
8800
8840
7780
ENDCHAR

STARTCHAR ccedilla
ENCODING 231
SWIDTH 520 0
DWIDTH 7 0
BBX 6 9 1 -3
BITMAP
78
84
80
80
84
78
20
10
60
ENDCHAR

STARTCHAR egrave
ENCODING 232
SWIDTH 520 0
DWIDTH 7 0
BBX 6 9 1 0
BITMAP
20
10
00
78
84
FC
80
84
78
ENDCHAR

STARTCHAR eacute
ENCODING 233
SWIDTH 520 0
DWIDTH 7 0
BBX 6 9 1 0
BITMAP
08
10
00
78
84
FC
80
84
78
ENDCHAR

STARTCHAR ecircumflex
ENCODING 234
SWIDTH 520 0
DWIDTH 7 0
BBX 6 9 1 0
BITMAP
10
28
00
78
84
FC
80
84
78
ENDCHAR

STARTCHAR edieresis
ENCODING 235
SWIDTH 520 0
DWIDTH 7 0
BBX 6 9 1 0
BITMAP
28
28
00
78
84
FC
80
84
78
ENDCHAR

STARTCHAR igrave
ENCODING 236
SWIDTH 300 0
DWIDTH 4 0
BBX 3 9 1 0
BITMAP
80
40
00
40
C0
40
40
40
E0
ENDCHAR

STARTCHAR iacute
ENCODING 237
SWIDTH 300 0
DWIDTH 4 0
BBX 3 9 1 0
BITMAP
20
40
00
40
C0
40
40
40
E0
ENDCHAR

STARTCHAR icircumflex
ENCODING 238
SWIDTH 300 0
DWIDTH 4 0
BBX 3 9 1 0
BITMAP
40
A0
00
40
C0
40
40
40
E0
ENDCHAR

STARTCHAR idieresis
ENCODING 239
SWIDTH 300 0
DWIDTH 4 0
BBX 3 9 1 0
BITMAP
A0
A0
00
40
C0
40
40
40
E0
ENDCHAR

STARTCHAR gbreve
ENCODING 240
SWIDTH 540 0
DWIDTH 7 0
BBX 6 12 1 -3
BITMAP
48
30
00
74
88
88
70
80
78
84
84
78
ENDCHAR

STARTCHAR ntilde
ENCODING 241
SWIDTH 660 0
DWIDTH 9 0
BBX 8 9 1 0
BITMAP
34
2C
00
5C
E2
42
42
42
E7
ENDCHAR

STARTCHAR ograve
ENCODING 242
SWIDTH 560 0
DWIDTH 7 0
BBX 6 9 1 0
BITMAP
20
10
00
78
84
84
84
84
78
ENDCHAR

STARTCHAR oacute
ENCODING 243
SWIDTH 560 0
DWIDTH 7 0
BBX 6 9 1 0
BITMAP
08
10
00
78
84
84
84
84
78
ENDCHAR

STARTCHAR ocircumflex
ENCODING 244
SWIDTH 560 0
DWIDTH 7 0
BBX 6 9 1 0
BITMAP
10
28
00
78
84
84
84
84
78
ENDCHAR

STARTCHAR otilde
ENCODING 245
SWIDTH 560 0
DWIDTH 7 0
BBX 6 9 1 0
BITMAP
68
58
00
78
84
84
84
84
78
ENDCHAR

STARTCHAR odieresis
ENCODING 246
SWIDTH 560 0
DWIDTH 7 0
BBX 6 9 1 0
BITMAP
28
28
00
78
84
84
84
84
78
ENDCHAR

STARTCHAR divide
ENCODING 247
SWIDTH 600 0
DWIDTH 8 0
BBX 7 5 0 2
BITMAP
10
00
FE
00
10
ENDCHAR

STARTCHAR oslash
ENCODING 248
SWIDTH 560 0
DWIDTH 7 0
BBX 6 6 1 0
BITMAP
74
8C
94
A4
C4
B8
ENDCHAR

STARTCHAR ugrave
ENCODING 249
SWIDTH 680 0
DWIDTH 9 0
BBX 8 9 1 0
BITMAP
20
10
00
C6
42
42
42
46
3B
ENDCHAR

STARTCHAR uacute
ENCODING 250
SWIDTH 680 0
DWIDTH 9 0
BBX 8 9 1 0
BITMAP
08
10
00
C6
42
42
42
46
3B
ENDCHAR

STARTCHAR ucircumflex
ENCODING 251
SWIDTH 680 0
DWIDTH 9 0
BBX 8 9 1 0
BITMAP
10
28
00
C6
42
42
42
46
3B
ENDCHAR

STARTCHAR udieresis
ENCODING 252
SWIDTH 680 0
DWIDTH 9 0
BBX 8 9 1 0
BITMAP
28
28
00
C6
42
42
42
46
3B
ENDCHAR

STARTCHAR dotlessi
ENCODING 253
SWIDTH 300 0
DWIDTH 4 0
BBX 3 6 1 0
BITMAP
40
C0
40
40
40
E0
ENDCHAR

STARTCHAR scedilla
ENCODING 254
SWIDTH 520 0
DWIDTH 6 0
BBX 5 9 1 -3
BITMAP
78
88
E0
18
88
F0
20
10
60
ENDCHAR

STARTCHAR ydieresis
ENCODING 255
SWIDTH 540 0
DWIDTH 7 0
BBX 7 12 0 -3
BITMAP
28
28
00
EE
44
44
28
28
10
10
A0
C0
ENDCHAR
ENDFONT
